# xmcd CD database file
#
# Track frame offsets:
#	150
#	11927
#	23046
#	33180
#	42593
#	52672
#	62988
#	74848
#	83021
#	92055
#	103407
#	112780
#	124400
#	133286
#	143704
#	152159
#	165190
#	173652
#	184490
#	194372
#	205313
#	216150
#	227301
#	240631
#	252307
#
# Disc length: 3498 seconds
#
# Revision: 2
# Processed by: cddbd v1.5.1PL2 Copyright (c) Steve Scherf et al.
# Submitted via: CDex 1.40Release
#
DISCID=650da819
DTITLE=Various Artist - Found In The Basement 7
DYEAR=1900
DGENRE=Oldies
TTITLE0=The Corvairs - Darlin'
TTITLE1=The Song Spinners - Rhythm Of The Rain
TTITLE2=The Ivyliers - Echo From The Blue
TTITLE3=Eddie Jacobs - Peter Cottontail
TTITLE4=Sonny Hines - Give Me Back My Heart
TTITLE5=Gary Criss - My Little Heavenly Angel
TTITLE6=Julie and The Desires - Kiss And Tell
TTITLE7=The Del-Tones - You're My Love
TTITLE8=Warner Mack - Someone, Somewhere
TTITLE9=The Pepsis - Pretty Little Angel Eyes
TTITLE10=Hilton James - I Made An Angel Cry
TTITLE11=Freddie Andrews - Silhouettes
TTITLE12=Neva Small - Shh, I'm Watching The Movie
TTITLE13=Ceaser L Jenkins - Cousin Ed
TTITLE14=Ritchie Marsh - Darling, I Swear That It's True
TTITLE15=Dick Michaels - Never Thought
TTITLE16=The Tru Tones - Little Hit And Run Darling
TTITLE17=The Alumni - Will You Still Love Me Tomorrow
TTITLE18=Vik E Lee - A You're Adorable
TTITLE19=Con Pierson - Poetry In Motion
TTITLE20=Linda and Roberta - I'm In Love With You
TTITLE21=Sonny Charles - You Better Believe It
TTITLE22=Small Town World - Tears On My Pillow
TTITLE23=Ronny James - I Just Want
TTITLE24=Little Abee C and Group - Hey Little Girl
EXTD=ID3G: 11
EXTT0=
EXTT1=
EXTT2=
EXTT3=
EXTT4=
EXTT5=
EXTT6=
EXTT7=
EXTT8=
EXTT9=
EXTT10=
EXTT11=
EXTT12=
EXTT13=
EXTT14=
EXTT15=
EXTT16=
EXTT17=
EXTT18=
EXTT19=
EXTT20=
EXTT21=
EXTT22=
EXTT23=
EXTT24=
PLAYORDER=
